<svg width="24" height="24" viewBox="0 0 24 24" fill="none" xmlns="http://www.w3.org/2000/svg">
<rect width="24" height="24" fill="white"/>
<path d="M18.3796 12.1533L13.5412 10.3721L11.7599 5.52989C11.6545 5.24333 11.4636 4.99601 11.2132 4.82132C10.9627 4.64662 10.6647 4.55296 10.3593 4.55296C10.054 4.55296 9.75594 4.64662 9.50548 4.82132C9.25502 4.99601 9.06418 5.24333 8.95869 5.52989L7.17557 10.3665L2.33338 12.1477C2.04682 12.2532 1.7995 12.444 1.62481 12.6945C1.45011 12.945 1.35645 13.243 1.35645 13.5483C1.35645 13.8537 1.45011 14.1517 1.62481 14.4022C1.7995 14.6526 2.04682 14.8435 2.33338 14.949L7.16901 16.7415L8.95026 21.5808C9.05574 21.8674 9.24659 22.1147 9.49704 22.2894C9.7475 22.4641 10.0455 22.5578 10.3509 22.5578C10.6562 22.5578 10.9543 22.4641 11.2047 22.2894C11.4552 22.1147 11.646 21.8674 11.7515 21.5808L13.5328 16.7424L18.3749 14.9611C18.6615 14.8557 18.9088 14.6648 19.0835 14.4144C19.2582 14.1639 19.3519 13.8659 19.3519 13.5605C19.3519 13.2552 19.2582 12.9571 19.0835 12.7067C18.9088 12.4562 18.6615 12.2654 18.3749 12.1599L18.3796 12.1533ZM13.0181 15.3352C12.8154 15.4096 12.6313 15.5272 12.4787 15.6799C12.326 15.8325 12.2084 16.0166 12.134 16.2193L10.3528 21.0436L8.57526 16.2155C8.50081 16.0139 8.38357 15.8308 8.2316 15.6789C8.07964 15.5269 7.89655 15.4097 7.69494 15.3352L2.87057 13.554L7.69494 11.7727C7.89655 11.6983 8.07964 11.581 8.2316 11.4291C8.38357 11.2771 8.50081 11.094 8.57526 10.8924L10.3565 6.06802L12.1378 10.8924C12.2121 11.0951 12.3298 11.2791 12.4824 11.4318C12.6351 11.5845 12.8191 11.7021 13.0218 11.7765L17.8462 13.5577L13.0181 15.3352ZM13.3565 3.80396C13.3565 3.60504 13.4355 3.41428 13.5762 3.27363C13.7168 3.13297 13.9076 3.05396 14.1065 3.05396H15.6065V1.55396C15.6065 1.35504 15.6855 1.16428 15.8262 1.02362C15.9668 0.882973 16.1576 0.803955 16.3565 0.803955C16.5554 0.803955 16.7462 0.882973 16.8868 1.02362C17.0275 1.16428 17.1065 1.35504 17.1065 1.55396V3.05396H18.6065C18.8054 3.05396 18.9962 3.13297 19.1368 3.27363C19.2775 3.41428 19.3565 3.60504 19.3565 3.80396C19.3565 4.00287 19.2775 4.19363 19.1368 4.33429C18.9962 4.47494 18.8054 4.55396 18.6065 4.55396H17.1065V6.05396C17.1065 6.25287 17.0275 6.44363 16.8868 6.58429C16.7462 6.72494 16.5554 6.80396 16.3565 6.80396C16.1576 6.80396 15.9668 6.72494 15.8262 6.58429C15.6855 6.44363 15.6065 6.25287 15.6065 6.05396V4.55396H14.1065C13.9076 4.55396 13.7168 4.47494 13.5762 4.33429C13.4355 4.19363 13.3565 4.00287 13.3565 3.80396ZM23.1065 8.30396C23.1065 8.50287 23.0275 8.69363 22.8868 8.83429C22.7462 8.97494 22.5554 9.05396 22.3565 9.05396H21.6065V9.80396C21.6065 10.0029 21.5275 10.1936 21.3868 10.3343C21.2462 10.4749 21.0554 10.554 20.8565 10.554C20.6576 10.554 20.4668 10.4749 20.3262 10.3343C20.1855 10.1936 20.1065 10.0029 20.1065 9.80396V9.05396H19.3565C19.1576 9.05396 18.9668 8.97494 18.8262 8.83429C18.6855 8.69363 18.6065 8.50287 18.6065 8.30396C18.6065 8.10504 18.6855 7.91428 18.8262 7.77363C18.9668 7.63297 19.1576 7.55396 19.3565 7.55396H20.1065V6.80396C20.1065 6.60504 20.1855 6.41428 20.3262 6.27363C20.4668 6.13297 20.6576 6.05396 20.8565 6.05396C21.0554 6.05396 21.2462 6.13297 21.3868 6.27363C21.5275 6.41428 21.6065 6.60504 21.6065 6.80396V7.55396H22.3565C22.5554 7.55396 22.7462 7.63297 22.8868 7.77363C23.0275 7.91428 23.1065 8.10504 23.1065 8.30396Z" fill="url(#paint0_linear_7101_2194)"/>
<defs>
<linearGradient id="paint0_linear_7101_2194" x1="2.34508" y1="28.812" x2="33.952" y2="12.002" gradientUnits="userSpaceOnUse">
<stop stop-color="#2A4ECC"/>
<stop offset="0.4" stop-color="#DA0B78"/>
<stop offset="1" stop-color="#FF4AA9"/>
</linearGradient>
</defs>
</svg>
